<?xml version="1.0" standalone="no"?>
<!DOCTYPE svg PUBLIC "-//W3C//DTD SVG 20010904//EN"
 "http://www.w3.org/TR/2001/REC-SVG-20010904/DTD/svg10.dtd">
<svg version="1.0" xmlns="http://www.w3.org/2000/svg"
 width="299.000000pt" height="344.000000pt" viewBox="0 0 299.000000 344.000000"
 preserveAspectRatio="xMidYMid meet">
<metadata>
Created by potrace 1.16, written by Peter Selinger 2001-2019
</metadata>
<g transform="translate(0.000000,344.000000) scale(0.100000,-0.100000)"
fill="#000000" stroke="none">
<path d="M1354 3065 c-132 -24 -269 -74 -356 -131 -26 -18 -28 -17 -70 6 -143
81 -370 -37 -585 -305 -83 -103 -119 -167 -139 -244 -25 -100 0 -189 90 -316
85 -118 165 -170 253 -163 46 4 60 10 93 43 l40 39 0 -44 c1 -184 115 -356
293 -443 l77 -37 -22 -58 c-33 -90 -62 -128 -207 -277 -104 -106 -145 -157
-173 -210 -41 -80 -68 -165 -77 -244 l-6 -54 -32 27 c-48 40 -92 138 -100 219
-6 70 -17 82 -46 49 -62 -68 -79 -217 -38 -323 38 -100 136 -186 233 -204 29
-6 45 -19 82 -66 25 -32 46 -66 46 -75 0 -49 103 -101 257 -130 158 -29 292
-4 322 62 10 24 11 23 59 -25 59 -59 118 -77 225 -68 217 18 265 195 82 303
-48 28 -66 72 -37 88 10 5 44 36 78 68 l61 58 6 -79 c13 -164 52 -264 125
-316 43 -29 47 -30 160 -30 132 0 168 13 210 76 48 70 5 173 -90 213 -27 11
-51 29 -55 40 -5 12 -7 161 -5 332 4 334 -2 393 -52 590 l-23 92 62 40 c80 53
178 158 214 230 42 84 54 150 49 259 -5 86 -4 92 11 79 9 -9 39 -25 65 -37
115 -51 213 14 314 208 81 156 89 254 31 363 -75 141 -359 346 -546 395 -114
30 -228 12 -289 -46 -21 -19 -21 -19 -86 5 -141 53 -345 70 -504 41z m937 -50
c200 -81 417 -254 475 -380 44 -92 25 -196 -61 -350 -99 -178 -214 -222 -321
-123 -68 62 -108 155 -154 356 -23 101 -52 200 -70 237 -34 70 -106 156 -169
200 -45 31 -43 43 12 71 71 37 181 33 288 -11z m-526 11 c109 -30 204 -83 275
-155 96 -98 111 -134 186 -444 14 -60 41 -145 60 -189 19 -44 39 -111 45 -149
34 -222 -97 -427 -352 -553 -60 -30 -138 -62 -174 -71 -62 -17 -86 -35 -46
-35 27 0 149 39 193 61 21 11 41 19 47 19 5 0 19 -37 31 -82 48 -178 52 -225
54 -589 1 -375 0 -371 57 -383 17 -3 49 -23 70 -45 34 -33 39 -45 39 -83 0
-35 -6 -50 -25 -68 l-25 -23 0 40 c0 25 -7 50 -19 64 -25 31 -36 20 -16 -17
16 -32 19 -72 7 -92 -9 -14 -65 -32 -98 -32 -19 0 -21 4 -16 48 3 37 0 53 -16
72 -26 32 -37 22 -17 -16 19 -37 19 -78 0 -94 -11 -9 -25 -8 -67 4 -107 31
-151 120 -173 344 l-7 73 50 102 c52 103 74 177 53 177 -5 0 -15 -19 -22 -42
-25 -95 -111 -230 -197 -311 -28 -26 -55 -47 -60 -47 -10 0 -22 129 -22 248 0
53 -4 82 -11 82 -16 0 -5 -330 12 -395 11 -39 21 -53 45 -65 99 -49 142 -135
98 -198 -18 -25 -39 -30 -30 -6 9 24 -11 88 -34 109 -24 22 -25 18 -5 -28 33
-81 14 -126 -58 -134 l-47 -6 0 50 c0 52 -31 110 -51 97 -6 -4 -4 -12 5 -22
20 -23 30 -66 22 -98 -6 -24 -10 -26 -47 -21 -61 8 -111 39 -141 88 -36 58
-73 205 -98 391 -16 120 -25 160 -47 200 -41 75 -110 118 -189 118 -54 0 -48
-17 9 -23 72 -9 124 -48 162 -122 26 -50 30 -69 29 -135 0 -63 -6 -88 -27
-132 -33 -67 -54 -87 -115 -107 -26 -9 -45 -20 -42 -26 3 -5 10 -8 15 -6 21 9
97 13 130 7 77 -15 132 -101 105 -165 -14 -35 -30 -41 -30 -11 0 31 -28 80
-46 80 -15 0 -15 -2 0 -25 19 -29 21 -86 4 -103 -7 -7 -29 -12 -50 -12 -37 0
-38 1 -38 39 0 23 -8 48 -19 62 -25 31 -36 20 -16 -17 20 -38 19 -73 -2 -81
-9 -4 -48 -1 -87 6 -151 26 -238 65 -244 110 -2 13 -23 47 -46 75 -81 99 -114
225 -96 358 24 170 67 244 248 431 133 137 147 154 188 242 43 92 45 94 70 85
39 -15 245 -51 255 -44 18 11 -1 22 -48 28 -96 14 -250 58 -320 92 -82 39
-181 125 -220 191 -64 109 -82 273 -44 386 25 70 45 174 71 358 42 304 93 390
290 489 76 38 173 71 265 89 75 15 338 7 410 -13z m-857 -106 l34 -21 -31 -35
c-75 -84 -106 -181 -145 -447 -30 -199 -50 -283 -83 -354 -26 -56 -88 -119
-128 -129 -65 -16 -174 61 -254 182 -90 134 -101 227 -42 344 43 85 97 156
199 262 176 182 350 259 450 198z m-495 -2083 c7 -75 43 -144 104 -203 30 -29
53 -60 53 -72 0 -11 9 -48 19 -81 22 -72 17 -75 -64 -37 -59 27 -119 90 -148
155 -29 62 -30 188 -3 249 10 23 22 42 26 42 4 0 10 -24 13 -53z m826 -391 c7
-37 10 -70 9 -72 -2 -2 -25 7 -50 19 l-47 23 30 43 c16 24 29 51 29 60 0 35
18 -9 29 -73z"/>
<path d="M1820 2560 c0 -5 13 -10 30 -10 18 0 42 -11 64 -30 44 -39 57 -22 15
19 -24 24 -39 31 -70 31 -21 0 -39 -4 -39 -10z"/>
<path d="M1071 2498 c-26 -14 -68 -75 -58 -85 3 -3 20 11 37 30 21 24 41 37
63 39 18 2 31 8 30 13 -4 15 -45 17 -72 3z"/>
<path d="M1816 2318 c-9 -12 -16 -42 -16 -66 0 -35 6 -49 29 -73 35 -35 52
-36 85 -6 37 32 40 108 6 145 -28 30 -83 30 -104 0z"/>
<path d="M1112 2258 c-61 -66 -16 -192 62 -172 57 14 75 110 30 163 -31 37
-62 40 -92 9z"/>
<path d="M1441 2115 c-92 -29 -115 -86 -60 -150 23 -26 47 -40 90 -52 60 -17
69 -27 69 -85 0 -54 -99 -105 -186 -95 -64 7 -132 44 -165 91 -26 36 -28 42
-15 52 16 12 22 34 9 34 -16 0 -74 -41 -80 -55 -7 -21 4 -32 19 -17 15 15 28
15 28 0 0 -25 51 -76 103 -103 42 -23 60 -39 76 -72 71 -147 218 -208 335
-139 57 34 100 91 123 165 14 44 31 69 79 116 40 39 64 72 68 92 7 29 11 32
33 27 39 -10 25 17 -20 39 -40 20 -73 13 -43 -9 16 -11 16 -15 1 -51 -42 -101
-152 -156 -263 -133 -62 14 -69 22 -77 86 -7 50 -7 51 21 58 70 18 132 97 118
152 -11 43 -58 64 -144 63 -41 0 -95 -6 -119 -14z m280 -445 c10 -6 19 -16 19
-23 0 -24 -60 -85 -103 -106 -52 -25 -94 -27 -145 -5 -35 14 -102 70 -102 85
0 13 80 39 120 39 37 0 41 -3 47 -30 8 -44 23 -47 23 -6 0 23 6 39 18 45 22
14 98 14 123 1z"/>
</g>
</svg>
